<svg width="1032" height="745" xmlns="http://www.w3.org/2000/svg" xmlns:xlink="http://www.w3.org/1999/xlink" xml:space="preserve" overflow="hidden"><defs><clipPath id="clip0"><rect x="2031" y="265" width="1032" height="745"/></clipPath></defs><g clip-path="url(#clip0)" transform="translate(-2031 -265)"><rect x="2031" y="265" width="1029" height="741" fill="#FFFFFF"/><path d="M0 0 0.000360892 643.916" stroke="#000000" stroke-width="4.58333" stroke-miterlimit="8" fill="none" fill-rule="evenodd" transform="matrix(-1 0 0 1 2824.5 265.5)"/><path d="M0 0 720.228 128.884" stroke="#000000" stroke-width="4.58333" stroke-miterlimit="8" fill="none" fill-rule="evenodd" transform="matrix(1 0 0 -1 2104.5 801.384)"/><path d="M0 0 720.228 128.884" stroke="#000000" stroke-width="4.58333" stroke-miterlimit="8" fill="none" fill-rule="evenodd" transform="matrix(1 0 0 -1 2270.5 571.384)"/><path d="M2270.5 571.5 2824.65 672.496" stroke="#000000" stroke-width="4.58333" stroke-miterlimit="8" fill="none" fill-rule="evenodd"/><path d="M0 0 0.000360892 643.916" stroke="#000000" stroke-width="4.58333" stroke-miterlimit="8" fill="none" fill-rule="evenodd" transform="matrix(-1 0 0 1 2270.5 363.5)"/><path d="M0 0 233.858 43.2627" stroke="#000000" stroke-width="4.58333" stroke-miterlimit="8" stroke-dasharray="18.3333 13.75" fill="none" fill-rule="evenodd" transform="matrix(1 0 0 -1 2034.5 616.763)"/><path d="M0 0 233.858 43.2627" stroke="#000000" stroke-width="4.58333" stroke-miterlimit="8" stroke-dasharray="18.3333 13.75" fill="none" fill-rule="evenodd" transform="matrix(1 0 0 -1 2826.5 670.763)"/></g></svg>